<?xml version="1.0" encoding="utf-8"?>
<!-- Generator: Adobe Illustrator 21.0.0, SVG Export Plug-In . SVG Version: 6.00 Build 0)  -->
<svg version="1.1" id="Layer_1" xmlns="http://www.w3.org/2000/svg" xmlns:xlink="http://www.w3.org/1999/xlink" x="0px" y="0px"
	 width="181px" height="11px" viewBox="0 0 181 11" style="enable-background:new 0 0 181 11;" xml:space="preserve">
<style type="text/css">
	.st0{fill:#2C2A2E;}
</style>
<g>
	<path class="st0" d="M0.36,10.35V0.87h0.91v9.48H0.36z"/>
	<path class="st0" d="M2.53,2.79V0.87h0.91v1.92H2.53z M2.53,10.35V3.31h0.91v7.04H2.53z"/>
	<path class="st0" d="M8.59,10.35L6.03,7.31L5.61,7.82v2.53H4.69V0.87h0.91v5.5l2.47-3.06h1.18L6.61,6.58l3.16,3.77H8.59z"/>
	<path class="st0" d="M17.7,6.84c0,0.16-0.01,0.3-0.03,0.44l-6.44,0.01c0.22,1.32,1.37,2.32,2.76,2.32c1.04,0,1.94-0.56,2.43-1.41
		h1.02c-0.55,1.36-1.88,2.32-3.44,2.32c-2.05,0-3.71-1.66-3.71-3.7c0-2.05,1.66-3.71,3.7-3.71c2.05,0,3.71,1.66,3.71,3.7V6.84z
		 M14.01,4.06c-1.38,0-2.53,1.01-2.76,2.34l5.5-0.01C16.53,5.06,15.38,4.06,14.01,4.06z"/>
	<path class="st0" d="M27.9,10.35V6.12c0-1.15-0.93-2.08-2.08-2.08s-2.08,0.93-2.08,2.08v4.23h-0.91V6.12
		c0-1.65,1.34-2.99,2.99-2.99c1.64,0,2.99,1.34,2.99,2.99v4.23H27.9z"/>
	<path class="st0" d="M33.47,10.53c-2.05,0-3.71-1.66-3.71-3.7c0-2.05,1.66-3.71,3.7-3.71c2.05,0,3.71,1.66,3.71,3.7
		C37.16,8.88,35.5,10.53,33.47,10.53z M33.47,4.04c-1.54,0-2.79,1.25-2.79,2.78c0,1.54,1.25,2.8,2.78,2.8
		c1.54,0,2.79-1.25,2.79-2.78C36.25,5.3,34.99,4.04,33.47,4.04z"/>
	<path class="st0" d="M45.68,10.53c-2.05,0-3.71-1.66-3.71-3.7c0-2.05,1.66-3.71,3.7-3.71c2.05,0,3.71,1.66,3.71,3.7
		C49.38,8.88,47.72,10.53,45.68,10.53z M45.68,4.04c-1.54,0-2.79,1.25-2.79,2.78c0,1.54,1.25,2.8,2.78,2.8
		c1.54,0,2.79-1.25,2.79-2.78C48.46,5.3,47.21,4.04,45.68,4.04z"/>
	<path class="st0" d="M52.02,4.23v6.13h-0.91V4.23h-1.1V3.31h1.1V1.29h0.91v2.02h1.51v0.91H52.02z"/>
	<path class="st0" d="M59.44,10.35V6.12c0-1.15-0.93-2.08-2.08-2.08s-2.08,0.93-2.08,2.08v4.23h-0.91V0.87h0.91v3.1
		c0.53-0.52,1.27-0.84,2.08-0.84c1.64,0,2.99,1.34,2.99,2.99v4.23H59.44z"/>
	<path class="st0" d="M68.7,6.84c0,0.16-0.01,0.3-0.03,0.44l-6.44,0.01c0.22,1.32,1.37,2.32,2.75,2.32c1.05,0,1.95-0.56,2.43-1.41
		h1.02c-0.55,1.36-1.88,2.32-3.44,2.32c-2.05,0-3.71-1.66-3.71-3.7c0-2.05,1.66-3.71,3.7-3.71c2.05,0,3.71,1.66,3.71,3.7V6.84z
		 M65.01,4.06c-1.38,0-2.53,1.01-2.75,2.34l5.5-0.01C67.53,5.06,66.38,4.06,65.01,4.06z"/>
	<path class="st0" d="M70.56,5.75v4.6h-0.91v-4.6c0-1.45,1.18-2.62,2.62-2.62v0.91C71.33,4.04,70.56,4.81,70.56,5.75z"/>
	<path class="st0" d="M79.42,10.53c-1.29,0-2.34-0.94-2.34-2.1H78c0,0.65,0.64,1.19,1.42,1.19c0.8,0,1.44-0.59,1.45-1.31
		c0-0.8-0.68-1.08-1.45-1.31c-0.95-0.26-2.05-0.59-2.04-1.96c0-1.06,0.91-1.92,2.05-1.92c1.14,0,2.05,0.81,2.05,1.8l-0.91,0.01
		c0-0.5-0.51-0.9-1.15-0.9c-0.63,0-1.14,0.46-1.14,1.01c0,0.65,0.68,0.9,1.44,1.11c0.97,0.27,2.05,0.69,2.05,2.15
		C81.77,9.54,80.72,10.53,79.42,10.53z"/>
	<path class="st0" d="M84.41,4.23v6.13H83.5V4.23h-1.1V3.31h1.1V1.29h0.91v2.02h1.51v0.91H84.41z"/>
	<path class="st0" d="M90.16,10.53c-2.05,0-3.71-1.66-3.71-3.7c0-2.05,1.66-3.71,3.7-3.71c2.05,0,3.71,1.66,3.71,3.7
		C93.86,8.88,92.2,10.53,90.16,10.53z M90.16,4.04c-1.54,0-2.79,1.25-2.79,2.78c0,1.54,1.25,2.8,2.78,2.8
		c1.54,0,2.79-1.25,2.79-2.78C92.94,5.3,91.69,4.04,90.16,4.04z"/>
	<path class="st0" d="M95.71,5.75v4.6H94.8v-4.6c0-1.45,1.18-2.62,2.62-2.62v0.91C96.48,4.04,95.71,4.81,95.71,5.75z"/>
	<path class="st0" d="M105.46,6.84c0,0.16-0.01,0.3-0.03,0.44l-6.44,0.01c0.22,1.32,1.37,2.32,2.75,2.32c1.05,0,1.95-0.56,2.43-1.41
		h1.02c-0.55,1.36-1.88,2.32-3.44,2.32c-2.05,0-3.71-1.66-3.71-3.7c0-2.05,1.66-3.71,3.7-3.71c2.05,0,3.71,1.66,3.71,3.7V6.84z
		 M101.76,4.06c-1.38,0-2.53,1.01-2.75,2.34l5.5-0.01C104.28,5.06,103.13,4.06,101.76,4.06z"/>
	<path class="st0" d="M110.58,2.79V0.87h0.91v1.92H110.58z M110.58,10.35V3.31h0.91v7.04H110.58z"/>
	<path class="st0" d="M117.82,10.35V6.12c0-1.15-0.93-2.08-2.08-2.08c-1.15,0-2.08,0.93-2.08,2.08v4.23h-0.91V6.12
		c0-1.65,1.34-2.99,2.99-2.99c1.64,0,2.99,1.34,2.99,2.99v4.23H117.82z"/>
	<path class="st0" d="M125.87,4.23v6.13h-0.91V4.23h-1.1V3.31h1.1V1.29h0.91v2.02h1.51v0.91H125.87z"/>
	<path class="st0" d="M133.29,10.35V6.12c0-1.15-0.93-2.08-2.08-2.08c-1.15,0-2.08,0.93-2.08,2.08v4.23h-0.91V0.87h0.91v3.1
		c0.53-0.52,1.27-0.84,2.08-0.84c1.64,0,2.99,1.34,2.99,2.99v4.23H133.29z"/>
	<path class="st0" d="M142.55,6.84c0,0.16-0.01,0.3-0.03,0.44l-6.44,0.01c0.22,1.32,1.37,2.32,2.76,2.32c1.05,0,1.95-0.56,2.43-1.41
		h1.02c-0.55,1.36-1.88,2.32-3.44,2.32c-2.05,0-3.71-1.66-3.71-3.7c0-2.05,1.66-3.71,3.7-3.71c2.05,0,3.71,1.66,3.71,3.7V6.84z
		 M138.86,4.06c-1.38,0-2.53,1.01-2.75,2.34l5.5-0.01C141.38,5.06,140.23,4.06,138.86,4.06z"/>
	<path class="st0" d="M158.23,7.67c0,1.58-1.28,2.86-2.87,2.86c-1.01,0-1.89-0.52-2.4-1.31c-0.51,0.78-1.4,1.31-2.42,1.31
		c-1.58,0-2.86-1.28-2.86-2.86V3.31h0.91v4.35c0,1.08,0.87,1.96,1.95,1.96c1.08,0,1.96-0.88,1.96-1.95V3.31h0.91v4.35
		c0,1.08,0.88,1.96,1.95,1.96c1.08,0,1.96-0.88,1.96-1.95V3.31h0.91v4.35V7.67z"/>
	<path class="st0" d="M162.89,10.53c-2.05,0-3.71-1.66-3.71-3.7c0-2.05,1.66-3.71,3.7-3.71c2.05,0,3.71,1.66,3.71,3.7
		C166.58,8.88,164.93,10.53,162.89,10.53z M162.89,4.04c-1.54,0-2.79,1.25-2.79,2.78c0,1.54,1.25,2.8,2.78,2.8
		c1.54,0,2.79-1.25,2.79-2.78C165.67,5.3,164.42,4.04,162.89,4.04z"/>
	<path class="st0" d="M168.44,5.75v4.6h-0.91v-4.6c0-1.45,1.18-2.62,2.62-2.62v0.91C169.21,4.04,168.44,4.81,168.44,5.75z"/>
	<path class="st0" d="M171.1,10.35V0.87h0.91v9.48H171.1z"/>
	<path class="st0" d="M176.66,10.53c-2.05,0-3.71-1.66-3.71-3.7c0-2.05,1.66-3.71,3.71-3.71c1.11,0,2.1,0.5,2.78,1.27V0.87h0.91
		v5.95C180.36,8.88,178.7,10.53,176.66,10.53z M176.66,4.04c-1.54,0-2.79,1.25-2.79,2.78c0,1.54,1.25,2.8,2.78,2.8
		c1.54,0,2.79-1.25,2.79-2.78C179.44,5.3,178.19,4.04,176.66,4.04z"/>
</g>
</svg>
